<mxfile host="app.diagrams.net" modified="2021-07-19T04:09:12.146Z" agent="5.0 (Windows NT 10.0; WOW64) AppleWebKit/537.36 (KHTML, like Gecko) Chrome/83.0.4103.61 Safari/537.36" etag="8zEKBUPH1-wG9_eK_gas" version="14.9.0" type="github">
  <diagram id="dqTE0z3j5utBwTfhuuDI" name="第 1 页">
    <mxGraphModel dx="1317" dy="457" grid="1" gridSize="10" guides="1" tooltips="1" connect="1" arrows="1" fold="1" page="0" pageScale="1" pageWidth="827" pageHeight="1169" math="0" shadow="0">
      <root>
        <mxCell id="0" />
        <mxCell id="1" parent="0" />
        <mxCell id="QXMiSGdsMHIv6WNnIhJc-1" value="" style="edgeStyle=orthogonalEdgeStyle;rounded=0;orthogonalLoop=1;jettySize=auto;html=1;fontFamily=Times New Roman;" edge="1" parent="1" source="QXMiSGdsMHIv6WNnIhJc-2" target="QXMiSGdsMHIv6WNnIhJc-7">
          <mxGeometry relative="1" as="geometry" />
        </mxCell>
        <mxCell id="QXMiSGdsMHIv6WNnIhJc-2" value="要删除的元素DE" style="text;html=1;align=center;verticalAlign=middle;resizable=0;points=[];autosize=1;strokeColor=#666666;fillColor=#f5f5f5;fontColor=#333333;" vertex="1" parent="1">
          <mxGeometry x="150" y="230" width="100" height="20" as="geometry" />
        </mxCell>
        <mxCell id="QXMiSGdsMHIv6WNnIhJc-3" value="" style="edgeStyle=orthogonalEdgeStyle;rounded=0;orthogonalLoop=1;jettySize=auto;html=1;fontFamily=Times New Roman;" edge="1" parent="1" source="QXMiSGdsMHIv6WNnIhJc-4" target="QXMiSGdsMHIv6WNnIhJc-7">
          <mxGeometry relative="1" as="geometry" />
        </mxCell>
        <mxCell id="QXMiSGdsMHIv6WNnIhJc-4" value="&lt;font face=&quot;Tahoma&quot;&gt;起始&lt;/font&gt;" style="text;html=1;align=center;verticalAlign=middle;resizable=0;points=[];autosize=1;strokeColor=none;fontStyle=1;spacingTop=0;spacing=0;fontFamily=Times New Roman;" vertex="1" parent="1">
          <mxGeometry x="15" y="350" width="40" height="20" as="geometry" />
        </mxCell>
        <mxCell id="QXMiSGdsMHIv6WNnIhJc-5" value="" style="edgeStyle=orthogonalEdgeStyle;rounded=0;orthogonalLoop=1;jettySize=auto;html=1;fontFamily=Times New Roman;" edge="1" parent="1" source="QXMiSGdsMHIv6WNnIhJc-7">
          <mxGeometry relative="1" as="geometry">
            <mxPoint x="370" y="359.9999999999999" as="targetPoint" />
          </mxGeometry>
        </mxCell>
        <mxCell id="QXMiSGdsMHIv6WNnIhJc-6" value="条件成立？" style="edgeLabel;html=1;align=center;verticalAlign=middle;resizable=0;points=[];fontFamily=Times New Roman;" vertex="1" connectable="0" parent="QXMiSGdsMHIv6WNnIhJc-5">
          <mxGeometry x="-0.2715" y="-2" relative="1" as="geometry">
            <mxPoint as="offset" />
          </mxGeometry>
        </mxCell>
        <mxCell id="QXMiSGdsMHIv6WNnIhJc-7" value="DE" style="ellipse;whiteSpace=wrap;html=1;aspect=fixed;fillColor=#f5f5f5;strokeColor=#666666;fontStyle=1;gradientColor=#b3b3b3;" vertex="1" parent="1">
          <mxGeometry x="160" y="320" width="80" height="80" as="geometry" />
        </mxCell>
        <mxCell id="QXMiSGdsMHIv6WNnIhJc-8" value="" style="edgeStyle=orthogonalEdgeStyle;rounded=0;orthogonalLoop=1;jettySize=auto;html=1;entryX=0;entryY=0.5;entryDx=0;entryDy=0;" edge="1" parent="1" source="QXMiSGdsMHIv6WNnIhJc-12">
          <mxGeometry relative="1" as="geometry">
            <mxPoint x="820" y="359.9999999999999" as="targetPoint" />
          </mxGeometry>
        </mxCell>
        <mxCell id="QXMiSGdsMHIv6WNnIhJc-9" value="成立" style="edgeLabel;html=1;align=center;verticalAlign=middle;resizable=0;points=[];" vertex="1" connectable="0" parent="QXMiSGdsMHIv6WNnIhJc-8">
          <mxGeometry x="0.2081" y="2" relative="1" as="geometry">
            <mxPoint as="offset" />
          </mxGeometry>
        </mxCell>
        <mxCell id="QXMiSGdsMHIv6WNnIhJc-10" value="" style="edgeStyle=orthogonalEdgeStyle;rounded=0;orthogonalLoop=1;jettySize=auto;html=1;" edge="1" parent="1" source="QXMiSGdsMHIv6WNnIhJc-12">
          <mxGeometry relative="1" as="geometry">
            <mxPoint x="429.9999999999998" y="230" as="targetPoint" />
          </mxGeometry>
        </mxCell>
        <mxCell id="QXMiSGdsMHIv6WNnIhJc-11" value="不成立" style="edgeLabel;html=1;align=center;verticalAlign=middle;resizable=0;points=[];" vertex="1" connectable="0" parent="QXMiSGdsMHIv6WNnIhJc-10">
          <mxGeometry x="0.2648" relative="1" as="geometry">
            <mxPoint as="offset" />
          </mxGeometry>
        </mxCell>
        <mxCell id="QXMiSGdsMHIv6WNnIhJc-12" value="&lt;b&gt;DLCE&lt;/b&gt;&amp;amp;&lt;b&gt;DRCE&lt;/b&gt;不为空" style="rounded=0;whiteSpace=wrap;html=1;fontFamily=Times New Roman;align=center;fillColor=#fff2cc;strokeColor=#d6b656;" vertex="1" parent="1">
          <mxGeometry x="370" y="310" width="120" height="100" as="geometry" />
        </mxCell>
        <mxCell id="QXMiSGdsMHIv6WNnIhJc-20" style="rounded=0;orthogonalLoop=1;jettySize=auto;html=1;exitX=0.5;exitY=1;exitDx=0;exitDy=0;entryX=0.5;entryY=0;entryDx=0;entryDy=0;" edge="1" parent="1" source="QXMiSGdsMHIv6WNnIhJc-24" target="QXMiSGdsMHIv6WNnIhJc-52">
          <mxGeometry relative="1" as="geometry" />
        </mxCell>
        <mxCell id="QXMiSGdsMHIv6WNnIhJc-21" value="是" style="edgeLabel;html=1;align=center;verticalAlign=middle;resizable=0;points=[];" vertex="1" connectable="0" parent="QXMiSGdsMHIv6WNnIhJc-20">
          <mxGeometry x="-0.2744" y="-2" relative="1" as="geometry">
            <mxPoint as="offset" />
          </mxGeometry>
        </mxCell>
        <mxCell id="QXMiSGdsMHIv6WNnIhJc-22" style="edgeStyle=none;rounded=0;orthogonalLoop=1;jettySize=auto;html=1;exitX=0.5;exitY=1;exitDx=0;exitDy=0;entryX=0.5;entryY=0;entryDx=0;entryDy=0;" edge="1" parent="1" source="QXMiSGdsMHIv6WNnIhJc-24" target="QXMiSGdsMHIv6WNnIhJc-61">
          <mxGeometry relative="1" as="geometry" />
        </mxCell>
        <mxCell id="QXMiSGdsMHIv6WNnIhJc-23" value="否" style="edgeLabel;html=1;align=center;verticalAlign=middle;resizable=0;points=[];" vertex="1" connectable="0" parent="QXMiSGdsMHIv6WNnIhJc-22">
          <mxGeometry x="-0.1458" y="2" relative="1" as="geometry">
            <mxPoint as="offset" />
          </mxGeometry>
        </mxCell>
        <mxCell id="QXMiSGdsMHIv6WNnIhJc-24" value="X的爷爷的&lt;b&gt;&lt;font size=&quot;1&quot;&gt;&lt;i style=&quot;font-size: 12px&quot;&gt;右子元素&lt;/i&gt;&lt;/font&gt;&lt;/b&gt;&lt;br&gt;是红色（&lt;b&gt;&lt;i&gt;为空时是黑色&lt;/i&gt;&lt;/b&gt;）？" style="rounded=0;whiteSpace=wrap;html=1;fillColor=#fff2cc;strokeColor=#d6b656;" vertex="1" parent="1">
          <mxGeometry x="1150" y="480" width="180" height="100" as="geometry" />
        </mxCell>
        <mxCell id="QXMiSGdsMHIv6WNnIhJc-25" style="edgeStyle=none;rounded=0;orthogonalLoop=1;jettySize=auto;html=1;exitX=0.5;exitY=1;exitDx=0;exitDy=0;entryX=0.5;entryY=0;entryDx=0;entryDy=0;" edge="1" parent="1" source="QXMiSGdsMHIv6WNnIhJc-29" target="QXMiSGdsMHIv6WNnIhJc-46">
          <mxGeometry relative="1" as="geometry" />
        </mxCell>
        <mxCell id="QXMiSGdsMHIv6WNnIhJc-26" value="是" style="edgeLabel;html=1;align=center;verticalAlign=middle;resizable=0;points=[];" vertex="1" connectable="0" parent="QXMiSGdsMHIv6WNnIhJc-25">
          <mxGeometry x="-0.0568" y="1" relative="1" as="geometry">
            <mxPoint as="offset" />
          </mxGeometry>
        </mxCell>
        <mxCell id="QXMiSGdsMHIv6WNnIhJc-27" style="edgeStyle=none;rounded=0;orthogonalLoop=1;jettySize=auto;html=1;exitX=0.5;exitY=1;exitDx=0;exitDy=0;entryX=0.5;entryY=0;entryDx=0;entryDy=0;" edge="1" parent="1" source="QXMiSGdsMHIv6WNnIhJc-29" target="QXMiSGdsMHIv6WNnIhJc-36">
          <mxGeometry relative="1" as="geometry" />
        </mxCell>
        <mxCell id="QXMiSGdsMHIv6WNnIhJc-28" value="否" style="edgeLabel;html=1;align=center;verticalAlign=middle;resizable=0;points=[];" vertex="1" connectable="0" parent="QXMiSGdsMHIv6WNnIhJc-27">
          <mxGeometry x="0.1529" y="1" relative="1" as="geometry">
            <mxPoint x="-1" as="offset" />
          </mxGeometry>
        </mxCell>
        <mxCell id="QXMiSGdsMHIv6WNnIhJc-29" value="X的爷爷的&lt;b&gt;&lt;font size=&quot;1&quot;&gt;&lt;i style=&quot;font-size: 12px&quot;&gt;左子元素&lt;/i&gt;&lt;/font&gt;&lt;/b&gt;&lt;br&gt;是红色（&lt;b&gt;&lt;i&gt;为空时是黑色&lt;/i&gt;&lt;/b&gt;）？" style="rounded=0;whiteSpace=wrap;html=1;fillColor=#fff2cc;strokeColor=#d6b656;" vertex="1" parent="1">
          <mxGeometry x="430" y="480" width="180" height="100" as="geometry" />
        </mxCell>
        <mxCell id="QXMiSGdsMHIv6WNnIhJc-30" style="edgeStyle=orthogonalEdgeStyle;rounded=0;orthogonalLoop=1;jettySize=auto;html=1;" edge="1" parent="1" source="QXMiSGdsMHIv6WNnIhJc-46" target="QXMiSGdsMHIv6WNnIhJc-4">
          <mxGeometry relative="1" as="geometry">
            <Array as="points">
              <mxPoint x="40" y="760" />
            </Array>
          </mxGeometry>
        </mxCell>
        <mxCell id="QXMiSGdsMHIv6WNnIhJc-31" value="递归判断，逐级往上遍历" style="edgeLabel;html=1;align=center;verticalAlign=middle;resizable=0;points=[];fontStyle=1" vertex="1" connectable="0" parent="QXMiSGdsMHIv6WNnIhJc-30">
          <mxGeometry x="-0.0133" y="3" relative="1" as="geometry">
            <mxPoint as="offset" />
          </mxGeometry>
        </mxCell>
        <mxCell id="QXMiSGdsMHIv6WNnIhJc-32" style="edgeStyle=none;rounded=0;orthogonalLoop=1;jettySize=auto;html=1;exitX=0.5;exitY=1;exitDx=0;exitDy=0;entryX=0.5;entryY=0;entryDx=0;entryDy=0;" edge="1" parent="1" source="QXMiSGdsMHIv6WNnIhJc-36" target="QXMiSGdsMHIv6WNnIhJc-76">
          <mxGeometry relative="1" as="geometry">
            <mxPoint x="490" y="870" as="targetPoint" />
          </mxGeometry>
        </mxCell>
        <mxCell id="QXMiSGdsMHIv6WNnIhJc-33" value="是" style="edgeLabel;html=1;align=center;verticalAlign=middle;resizable=0;points=[];" vertex="1" connectable="0" parent="QXMiSGdsMHIv6WNnIhJc-32">
          <mxGeometry x="-0.2098" y="-1" relative="1" as="geometry">
            <mxPoint as="offset" />
          </mxGeometry>
        </mxCell>
        <mxCell id="QXMiSGdsMHIv6WNnIhJc-34" style="edgeStyle=orthogonalEdgeStyle;rounded=0;orthogonalLoop=1;jettySize=auto;html=1;exitX=0.5;exitY=1;exitDx=0;exitDy=0;entryX=1;entryY=0.5;entryDx=0;entryDy=0;" edge="1" parent="1" source="QXMiSGdsMHIv6WNnIhJc-36" target="QXMiSGdsMHIv6WNnIhJc-38">
          <mxGeometry relative="1" as="geometry" />
        </mxCell>
        <mxCell id="QXMiSGdsMHIv6WNnIhJc-35" value="否" style="edgeLabel;html=1;align=center;verticalAlign=middle;resizable=0;points=[];" vertex="1" connectable="0" parent="QXMiSGdsMHIv6WNnIhJc-34">
          <mxGeometry x="-0.1874" y="2" relative="1" as="geometry">
            <mxPoint as="offset" />
          </mxGeometry>
        </mxCell>
        <mxCell id="QXMiSGdsMHIv6WNnIhJc-36" value="X是它父亲的&lt;b&gt;&lt;i&gt;左子元素&lt;/i&gt;&lt;/b&gt;？" style="rounded=0;whiteSpace=wrap;html=1;fillColor=#fff2cc;strokeColor=#d6b656;" vertex="1" parent="1">
          <mxGeometry x="560" y="640" width="200" height="120" as="geometry" />
        </mxCell>
        <mxCell id="QXMiSGdsMHIv6WNnIhJc-37" value="" style="group" vertex="1" connectable="0" parent="1">
          <mxGeometry x="280" y="1040" width="320" height="240" as="geometry" />
        </mxCell>
        <mxCell id="QXMiSGdsMHIv6WNnIhJc-38" value="" style="rounded=0;whiteSpace=wrap;html=1;fillColor=#f5f5f5;strokeColor=#666666;fontColor=#333333;" vertex="1" parent="QXMiSGdsMHIv6WNnIhJc-37">
          <mxGeometry width="320" height="239.99999999999997" as="geometry" />
        </mxCell>
        <mxCell id="QXMiSGdsMHIv6WNnIhJc-39" value="1.&amp;nbsp;将X的父亲设为黑色" style="rounded=0;whiteSpace=wrap;html=1;" vertex="1" parent="QXMiSGdsMHIv6WNnIhJc-37">
          <mxGeometry x="20" y="21.818181818181817" width="280" height="43.63636363636363" as="geometry" />
        </mxCell>
        <mxCell id="QXMiSGdsMHIv6WNnIhJc-40" value="2.&amp;nbsp;将X的爷爷设为红色" style="rounded=0;whiteSpace=wrap;html=1;" vertex="1" parent="QXMiSGdsMHIv6WNnIhJc-37">
          <mxGeometry x="20" y="98.18181818181817" width="280" height="43.63636363636363" as="geometry" />
        </mxCell>
        <mxCell id="QXMiSGdsMHIv6WNnIhJc-41" value="" style="edgeStyle=none;rounded=0;orthogonalLoop=1;jettySize=auto;html=1;" edge="1" parent="QXMiSGdsMHIv6WNnIhJc-37" source="QXMiSGdsMHIv6WNnIhJc-39" target="QXMiSGdsMHIv6WNnIhJc-40">
          <mxGeometry relative="1" as="geometry" />
        </mxCell>
        <mxCell id="QXMiSGdsMHIv6WNnIhJc-42" value="3.&amp;nbsp;以X的爷爷&lt;b&gt;&lt;i&gt;左旋&lt;/i&gt;&lt;/b&gt;" style="rounded=0;whiteSpace=wrap;html=1;" vertex="1" parent="QXMiSGdsMHIv6WNnIhJc-37">
          <mxGeometry x="20" y="174.54545454545453" width="280" height="43.63636363636363" as="geometry" />
        </mxCell>
        <mxCell id="QXMiSGdsMHIv6WNnIhJc-43" value="" style="edgeStyle=none;rounded=0;orthogonalLoop=1;jettySize=auto;html=1;" edge="1" parent="QXMiSGdsMHIv6WNnIhJc-37" source="QXMiSGdsMHIv6WNnIhJc-40" target="QXMiSGdsMHIv6WNnIhJc-42">
          <mxGeometry relative="1" as="geometry" />
        </mxCell>
        <mxCell id="QXMiSGdsMHIv6WNnIhJc-45" value="" style="group" vertex="1" connectable="0" parent="1">
          <mxGeometry x="160" y="640" width="320" height="160" as="geometry" />
        </mxCell>
        <mxCell id="QXMiSGdsMHIv6WNnIhJc-46" value="" style="rounded=0;whiteSpace=wrap;html=1;fillColor=#f5f5f5;strokeColor=#666666;fontColor=#333333;" vertex="1" parent="QXMiSGdsMHIv6WNnIhJc-45">
          <mxGeometry width="320" height="160" as="geometry" />
        </mxCell>
        <mxCell id="QXMiSGdsMHIv6WNnIhJc-47" value="X的父亲设为&lt;br&gt;黑色" style="ellipse;whiteSpace=wrap;html=1;aspect=fixed;fillColor=#f5f5f5;strokeColor=#666666;gradientColor=#b3b3b3;" vertex="1" parent="QXMiSGdsMHIv6WNnIhJc-45">
          <mxGeometry x="20" y="10" width="80" height="80" as="geometry" />
        </mxCell>
        <mxCell id="QXMiSGdsMHIv6WNnIhJc-48" value="X的爷爷的&lt;b&gt;&lt;font style=&quot;font-size: 12px&quot;&gt;&lt;i&gt;左子元素&lt;/i&gt;&lt;/font&gt;&lt;/b&gt;设为&lt;br&gt;黑色" style="ellipse;whiteSpace=wrap;html=1;aspect=fixed;fillColor=#f5f5f5;strokeColor=#666666;gradientColor=#b3b3b3;" vertex="1" parent="QXMiSGdsMHIv6WNnIhJc-45">
          <mxGeometry x="120" y="10" width="80" height="80" as="geometry" />
        </mxCell>
        <mxCell id="QXMiSGdsMHIv6WNnIhJc-49" value="X的爷爷设为&lt;br&gt;红色" style="ellipse;whiteSpace=wrap;html=1;aspect=fixed;fillColor=#f8cecc;strokeColor=#b85450;gradientColor=#ea6b66;" vertex="1" parent="QXMiSGdsMHIv6WNnIhJc-45">
          <mxGeometry x="220" y="10" width="80" height="80" as="geometry" />
        </mxCell>
        <mxCell id="QXMiSGdsMHIv6WNnIhJc-50" value="将X的爷爷赋值给临时变量&lt;b&gt;X（&lt;/b&gt;用于递归元素条件&lt;br&gt;判断&lt;b&gt;）&lt;/b&gt;" style="rounded=0;whiteSpace=wrap;html=1;" vertex="1" parent="QXMiSGdsMHIv6WNnIhJc-45">
          <mxGeometry x="20" y="100" width="280" height="40" as="geometry" />
        </mxCell>
        <mxCell id="QXMiSGdsMHIv6WNnIhJc-51" value="" style="group" vertex="1" connectable="0" parent="1">
          <mxGeometry x="880" y="640" width="320" height="160" as="geometry" />
        </mxCell>
        <mxCell id="QXMiSGdsMHIv6WNnIhJc-52" value="" style="rounded=0;whiteSpace=wrap;html=1;fillColor=#f5f5f5;strokeColor=#666666;fontColor=#333333;" vertex="1" parent="QXMiSGdsMHIv6WNnIhJc-51">
          <mxGeometry width="320" height="160" as="geometry" />
        </mxCell>
        <mxCell id="QXMiSGdsMHIv6WNnIhJc-53" value="X的父亲设为&lt;br&gt;黑色" style="ellipse;whiteSpace=wrap;html=1;aspect=fixed;fillColor=#f5f5f5;strokeColor=#666666;gradientColor=#b3b3b3;" vertex="1" parent="QXMiSGdsMHIv6WNnIhJc-51">
          <mxGeometry x="20" y="10" width="80" height="80" as="geometry" />
        </mxCell>
        <mxCell id="QXMiSGdsMHIv6WNnIhJc-54" value="X的爷爷的&lt;font size=&quot;1&quot;&gt;&lt;b&gt;&lt;i style=&quot;font-size: 12px&quot;&gt;右子节点&lt;/i&gt;&lt;/b&gt;&lt;/font&gt;设为&lt;br&gt;黑色" style="ellipse;whiteSpace=wrap;html=1;aspect=fixed;fillColor=#f5f5f5;strokeColor=#666666;gradientColor=#b3b3b3;" vertex="1" parent="QXMiSGdsMHIv6WNnIhJc-51">
          <mxGeometry x="120" y="10" width="80" height="80" as="geometry" />
        </mxCell>
        <mxCell id="QXMiSGdsMHIv6WNnIhJc-55" value="X的爷爷设为&lt;br&gt;红色" style="ellipse;whiteSpace=wrap;html=1;aspect=fixed;fillColor=#f8cecc;strokeColor=#b85450;gradientColor=#ea6b66;" vertex="1" parent="QXMiSGdsMHIv6WNnIhJc-51">
          <mxGeometry x="220" y="10" width="80" height="80" as="geometry" />
        </mxCell>
        <mxCell id="QXMiSGdsMHIv6WNnIhJc-56" value="将X的爷爷赋值给临时变量&lt;b&gt;X（&lt;/b&gt;用于递归元素条件&lt;br&gt;判断&lt;b&gt;）&lt;/b&gt;" style="rounded=0;whiteSpace=wrap;html=1;" vertex="1" parent="QXMiSGdsMHIv6WNnIhJc-51">
          <mxGeometry x="20" y="100" width="280" height="40" as="geometry" />
        </mxCell>
        <mxCell id="QXMiSGdsMHIv6WNnIhJc-57" style="rounded=0;orthogonalLoop=1;jettySize=auto;html=1;exitX=0.5;exitY=1;exitDx=0;exitDy=0;entryX=0.5;entryY=0;entryDx=0;entryDy=0;" edge="1" parent="1" source="QXMiSGdsMHIv6WNnIhJc-61" target="QXMiSGdsMHIv6WNnIhJc-70">
          <mxGeometry relative="1" as="geometry">
            <mxPoint x="1200" y="820" as="targetPoint" />
          </mxGeometry>
        </mxCell>
        <mxCell id="QXMiSGdsMHIv6WNnIhJc-58" value="是" style="edgeLabel;html=1;align=center;verticalAlign=middle;resizable=0;points=[];" vertex="1" connectable="0" parent="QXMiSGdsMHIv6WNnIhJc-57">
          <mxGeometry x="-0.1437" relative="1" as="geometry">
            <mxPoint as="offset" />
          </mxGeometry>
        </mxCell>
        <mxCell id="QXMiSGdsMHIv6WNnIhJc-59" style="edgeStyle=orthogonalEdgeStyle;rounded=0;orthogonalLoop=1;jettySize=auto;html=1;exitX=0.5;exitY=1;exitDx=0;exitDy=0;entryX=1;entryY=0.5;entryDx=0;entryDy=0;" edge="1" parent="1" source="QXMiSGdsMHIv6WNnIhJc-61" target="QXMiSGdsMHIv6WNnIhJc-63">
          <mxGeometry relative="1" as="geometry" />
        </mxCell>
        <mxCell id="QXMiSGdsMHIv6WNnIhJc-60" value="否" style="edgeLabel;html=1;align=center;verticalAlign=middle;resizable=0;points=[];" vertex="1" connectable="0" parent="QXMiSGdsMHIv6WNnIhJc-59">
          <mxGeometry x="-0.1778" y="-1" relative="1" as="geometry">
            <mxPoint as="offset" />
          </mxGeometry>
        </mxCell>
        <mxCell id="QXMiSGdsMHIv6WNnIhJc-61" value="X是它父亲的&lt;b&gt;&lt;i&gt;右子元素&lt;/i&gt;&lt;/b&gt;？" style="rounded=0;whiteSpace=wrap;html=1;fillColor=#fff2cc;strokeColor=#d6b656;" vertex="1" parent="1">
          <mxGeometry x="1280" y="640" width="200" height="120" as="geometry" />
        </mxCell>
        <mxCell id="QXMiSGdsMHIv6WNnIhJc-62" value="" style="group" vertex="1" connectable="0" parent="1">
          <mxGeometry x="1000" y="1040" width="320" height="240" as="geometry" />
        </mxCell>
        <mxCell id="QXMiSGdsMHIv6WNnIhJc-63" value="" style="rounded=0;whiteSpace=wrap;html=1;fillColor=#f5f5f5;strokeColor=#666666;fontColor=#333333;" vertex="1" parent="QXMiSGdsMHIv6WNnIhJc-62">
          <mxGeometry width="320" height="239.99999999999997" as="geometry" />
        </mxCell>
        <mxCell id="QXMiSGdsMHIv6WNnIhJc-64" value="1.&amp;nbsp;将X的父亲设为黑色" style="rounded=0;whiteSpace=wrap;html=1;" vertex="1" parent="QXMiSGdsMHIv6WNnIhJc-62">
          <mxGeometry x="20" y="21.818181818181817" width="280" height="43.63636363636363" as="geometry" />
        </mxCell>
        <mxCell id="QXMiSGdsMHIv6WNnIhJc-65" value="2.&amp;nbsp;将X的爷爷设为红色" style="rounded=0;whiteSpace=wrap;html=1;" vertex="1" parent="QXMiSGdsMHIv6WNnIhJc-62">
          <mxGeometry x="20" y="98.18181818181817" width="280" height="43.63636363636363" as="geometry" />
        </mxCell>
        <mxCell id="QXMiSGdsMHIv6WNnIhJc-66" value="" style="edgeStyle=none;rounded=0;orthogonalLoop=1;jettySize=auto;html=1;" edge="1" parent="QXMiSGdsMHIv6WNnIhJc-62" source="QXMiSGdsMHIv6WNnIhJc-64" target="QXMiSGdsMHIv6WNnIhJc-65">
          <mxGeometry relative="1" as="geometry" />
        </mxCell>
        <mxCell id="QXMiSGdsMHIv6WNnIhJc-67" value="3.&amp;nbsp;以X的爷爷&lt;b&gt;&lt;i&gt;右旋&lt;/i&gt;&lt;/b&gt;" style="rounded=0;whiteSpace=wrap;html=1;" vertex="1" parent="QXMiSGdsMHIv6WNnIhJc-62">
          <mxGeometry x="20" y="174.54545454545453" width="280" height="43.63636363636363" as="geometry" />
        </mxCell>
        <mxCell id="QXMiSGdsMHIv6WNnIhJc-68" value="" style="edgeStyle=none;rounded=0;orthogonalLoop=1;jettySize=auto;html=1;" edge="1" parent="QXMiSGdsMHIv6WNnIhJc-62" source="QXMiSGdsMHIv6WNnIhJc-65" target="QXMiSGdsMHIv6WNnIhJc-67">
          <mxGeometry relative="1" as="geometry" />
        </mxCell>
        <mxCell id="QXMiSGdsMHIv6WNnIhJc-69" value="" style="group" vertex="1" connectable="0" parent="1">
          <mxGeometry x="1000" y="840" width="320" height="160" as="geometry" />
        </mxCell>
        <mxCell id="QXMiSGdsMHIv6WNnIhJc-70" value="" style="rounded=0;whiteSpace=wrap;html=1;fillColor=#f5f5f5;strokeColor=#666666;fontColor=#333333;" vertex="1" parent="QXMiSGdsMHIv6WNnIhJc-69">
          <mxGeometry width="320" height="160" as="geometry" />
        </mxCell>
        <mxCell id="QXMiSGdsMHIv6WNnIhJc-71" value="1. X的父亲元素赋值给X" style="rounded=0;whiteSpace=wrap;html=1;" vertex="1" parent="QXMiSGdsMHIv6WNnIhJc-69">
          <mxGeometry x="20" y="21.333333333333332" width="280" height="42.666666666666664" as="geometry" />
        </mxCell>
        <mxCell id="QXMiSGdsMHIv6WNnIhJc-72" value="2.&amp;nbsp;以X&lt;b&gt;&lt;i&gt;左旋&lt;/i&gt;&lt;/b&gt;" style="rounded=0;whiteSpace=wrap;html=1;" vertex="1" parent="QXMiSGdsMHIv6WNnIhJc-69">
          <mxGeometry x="20" y="96" width="280" height="42.666666666666664" as="geometry" />
        </mxCell>
        <mxCell id="QXMiSGdsMHIv6WNnIhJc-73" value="" style="edgeStyle=none;rounded=0;orthogonalLoop=1;jettySize=auto;html=1;" edge="1" parent="QXMiSGdsMHIv6WNnIhJc-69" source="QXMiSGdsMHIv6WNnIhJc-71" target="QXMiSGdsMHIv6WNnIhJc-72">
          <mxGeometry as="geometry" />
        </mxCell>
        <mxCell id="QXMiSGdsMHIv6WNnIhJc-74" value="" style="edgeStyle=none;rounded=0;orthogonalLoop=1;jettySize=auto;html=1;entryX=0.5;entryY=0;entryDx=0;entryDy=0;" edge="1" parent="1" source="QXMiSGdsMHIv6WNnIhJc-70" target="QXMiSGdsMHIv6WNnIhJc-63">
          <mxGeometry relative="1" as="geometry" />
        </mxCell>
        <mxCell id="QXMiSGdsMHIv6WNnIhJc-75" value="" style="group" vertex="1" connectable="0" parent="1">
          <mxGeometry x="280" y="840" width="320" height="160" as="geometry" />
        </mxCell>
        <mxCell id="QXMiSGdsMHIv6WNnIhJc-76" value="" style="rounded=0;whiteSpace=wrap;html=1;fillColor=#f5f5f5;strokeColor=#666666;fontColor=#333333;" vertex="1" parent="QXMiSGdsMHIv6WNnIhJc-75">
          <mxGeometry width="320" height="160" as="geometry" />
        </mxCell>
        <mxCell id="QXMiSGdsMHIv6WNnIhJc-77" value="1. X的父亲元素赋值给X" style="rounded=0;whiteSpace=wrap;html=1;" vertex="1" parent="QXMiSGdsMHIv6WNnIhJc-75">
          <mxGeometry x="20" y="21.333333333333332" width="280" height="42.666666666666664" as="geometry" />
        </mxCell>
        <mxCell id="QXMiSGdsMHIv6WNnIhJc-78" value="2.&amp;nbsp;以X&lt;b&gt;&lt;i&gt;右旋&lt;/i&gt;&lt;/b&gt;" style="rounded=0;whiteSpace=wrap;html=1;" vertex="1" parent="QXMiSGdsMHIv6WNnIhJc-75">
          <mxGeometry x="20" y="96" width="280" height="42.666666666666664" as="geometry" />
        </mxCell>
        <mxCell id="QXMiSGdsMHIv6WNnIhJc-79" value="" style="edgeStyle=none;rounded=0;orthogonalLoop=1;jettySize=auto;html=1;" edge="1" parent="QXMiSGdsMHIv6WNnIhJc-75" source="QXMiSGdsMHIv6WNnIhJc-77" target="QXMiSGdsMHIv6WNnIhJc-78">
          <mxGeometry as="geometry" />
        </mxCell>
        <mxCell id="QXMiSGdsMHIv6WNnIhJc-80" value="" style="edgeStyle=orthogonalEdgeStyle;rounded=0;orthogonalLoop=1;jettySize=auto;html=1;" edge="1" parent="1" source="QXMiSGdsMHIv6WNnIhJc-76">
          <mxGeometry relative="1" as="geometry">
            <mxPoint x="440" y="1040" as="targetPoint" />
          </mxGeometry>
        </mxCell>
        <mxCell id="QXMiSGdsMHIv6WNnIhJc-81" style="edgeStyle=orthogonalEdgeStyle;rounded=0;orthogonalLoop=1;jettySize=auto;html=1;exitX=0.5;exitY=1;exitDx=0;exitDy=0;" edge="1" parent="1" source="QXMiSGdsMHIv6WNnIhJc-38">
          <mxGeometry relative="1" as="geometry">
            <mxPoint x="40" y="770" as="targetPoint" />
            <Array as="points">
              <mxPoint x="440" y="1320" />
              <mxPoint x="40" y="1320" />
            </Array>
          </mxGeometry>
        </mxCell>
        <mxCell id="QXMiSGdsMHIv6WNnIhJc-82" style="rounded=0;orthogonalLoop=1;jettySize=auto;html=1;exitX=0.5;exitY=1;exitDx=0;exitDy=0;edgeStyle=orthogonalEdgeStyle;" edge="1" parent="1" source="QXMiSGdsMHIv6WNnIhJc-63">
          <mxGeometry relative="1" as="geometry">
            <mxPoint x="450" y="1320" as="targetPoint" />
            <Array as="points">
              <mxPoint x="1160" y="1320" />
            </Array>
          </mxGeometry>
        </mxCell>
        <mxCell id="QXMiSGdsMHIv6WNnIhJc-83" style="edgeStyle=orthogonalEdgeStyle;rounded=0;orthogonalLoop=1;jettySize=auto;html=1;exitX=0.25;exitY=1;exitDx=0;exitDy=0;" edge="1" parent="1" source="QXMiSGdsMHIv6WNnIhJc-52">
          <mxGeometry relative="1" as="geometry">
            <mxPoint x="960" y="1310" as="targetPoint" />
          </mxGeometry>
        </mxCell>
        <mxCell id="QXMiSGdsMHIv6WNnIhJc-84" value="这里定义几个变量：&lt;br&gt;DE（DeleteElement）：要删除的元素&lt;br&gt;DLCE（DeleteLeftChildElement）：要删除的元素的左子节点&lt;br&gt;DRCE（DeleteRightChildElement）：要删除的元素的右子节点" style="text;html=1;align=center;verticalAlign=middle;resizable=0;points=[];autosize=1;strokeColor=none;" vertex="1" parent="1">
          <mxGeometry x="-20" y="70" width="350" height="60" as="geometry" />
        </mxCell>
        <mxCell id="QXMiSGdsMHIv6WNnIhJc-86" value="" style="rounded=0;whiteSpace=wrap;html=1;fillColor=#f5f5f5;strokeColor=#666666;fontColor=#333333;" vertex="1" parent="1">
          <mxGeometry x="820" y="280" width="320" height="160" as="geometry" />
        </mxCell>
        <mxCell id="QXMiSGdsMHIv6WNnIhJc-90" value="1. 找到&lt;b&gt;DE&lt;/b&gt;的&lt;b&gt;后继节点&lt;/b&gt;，记为&lt;b&gt;s&lt;/b&gt;" style="rounded=0;whiteSpace=wrap;html=1;align=center;" vertex="1" parent="1">
          <mxGeometry x="840" y="290.00333333333333" width="280" height="35" as="geometry" />
        </mxCell>
        <mxCell id="QXMiSGdsMHIv6WNnIhJc-92" value="2.&amp;nbsp;将&lt;b&gt;后继节点s&lt;/b&gt;赋值给&lt;b&gt;DE&lt;/b&gt;" style="rounded=0;whiteSpace=wrap;html=1;align=center;" vertex="1" parent="1">
          <mxGeometry x="840" y="342.49666666666667" width="280" height="35" as="geometry" />
        </mxCell>
        <mxCell id="QXMiSGdsMHIv6WNnIhJc-95" value="注：相当于把&lt;b&gt;DE&lt;/b&gt;删除了" style="rounded=0;whiteSpace=wrap;html=1;" vertex="1" parent="1">
          <mxGeometry x="840" y="394.99666666666667" width="280" height="35" as="geometry" />
        </mxCell>
      </root>
    </mxGraphModel>
  </diagram>
</mxfile>
